<svg xmlns="http://www.w3.org/2000/svg" height="24px" viewBox="0 0 24 24" width="24px" fill="currentColor">
    <path d="M0 0h24v24H0z" fill="none"/>
    <path d="M7 14c-1.66 0-3 1.34-3 3 0 1.31-1.16 2-2 2 .92 1.22 2.49 2 4 2 2.21 0 4-1.79 4-4 0-1.66-1.34-3-3-3zm13.71-9.37c-.39-.39-1.02-.39-1.41 0L18 6.00l-1.06-1.06c-1.17-1.17-3.07-1.17-4.24 0l-2.12 2.12c-1.17 1.17-1.17 3.07 0 4.24L12 13l-1.06 1.06c-.94.94-2.06.94-3 .94s-2.06-.94-3-.94L3.21 12.37c-.39-.39-.39-1.02 0-1.41l2.12-2.12c.39-.39 1.02-.39 1.41 0L8 10l1.06-1.06c1.17-1.17 3.07-1.17 4.24 0l2.12 2.12c1.17 1.17 1.17 3.07 0 4.24L16.17 17H7c-2.21 0-4 1.79-4 4h13c1.1 0 2-.9 2-2V7.83l2.71-2.71c.39-.39.39-1.02 0-1.41z"/>
    <text x="2" y="20" font-size="6px">brush</text>
</svg>
