<svg xmlns="http://www.w3.org/2000/svg" height="24px" viewBox="0 0 24 24" width="24px" fill="currentColor">
    <path d="M0 0h24v24H0z" fill="none"/>
    <path d="M20.5 11c-.23 0-.44.02-.66.06A8.01 8.01 0 0 0 5.06 12.5C5.02 12.71 5 12.93 5 13.15c0 1.3.41 2.51 1.11 3.54l1.73-1.04A4.509 4.509 0 0 1 7 13.15c0-.69.15-1.34.41-1.93l-1.7-2.89C5.25 9.01 5 9.74 5 10.5c0 .23.02.45.05.66A8.008 8.008 0 0 0 13.5 19.94c.22.03.44.05.66.05.8 0 1.56-.26 2.19-.7l1.69 2.92c-.91.79-2.04 1.23-3.28 1.23-3.53 0-6.43-2.61-6.92-6H2v-2h5.08c.48-3.39 3.39-6 6.92-6 .06 0 .11.01.17.01L12.5 3.5 14 2l4 4-1.5 1.5L15 5.99c.00-.003.0007-.005.001-.007V6h.01c.003 0 .005-.0007.007-.001H15v.01c0 .003-.0007.005-.001.007V6h.01c3.53 0 6.43 2.61 6.92 6H22v2h-1.5z"/>
    <text x="2" y="20" font-size="6px">pan_tool</text>
</svg>
